<?xml version="1.0" encoding="UTF-8" standalone="no"?>
<!DOCTYPE svg PUBLIC "-//W3C//DTD SVG 1.1//EN" "http://www.w3.org/Graphics/SVG/1.1/DTD/svg11.dtd">
<svg width="100%" height="100%" viewBox="0 0 460 266" version="1.1" xmlns="http://www.w3.org/2000/svg" xmlns:xlink="http://www.w3.org/1999/xlink" xml:space="preserve" xmlns:serif="http://www.serif.com/" style="fill-rule:evenodd;clip-rule:evenodd;stroke-linejoin:round;stroke-miterlimit:2;">
    <g transform="matrix(1,0,0,1,-1000,-2357.97)">
        <g transform="matrix(1,0,0,2.94722,0,0)">
            <g transform="matrix(0.312659,0,0,0.106086,1230,845.107)">
                <g transform="matrix(1,0,0,1,-735.625,-424.583)">
                    <clipPath id="_clip1">
                        <rect x="0" y="0" width="1471.25" height="849.167"/>
                    </clipPath>
                    <g clip-path="url(#_clip1)">
                        <g transform="matrix(4.16667,0,0,4.16743,-585.208,-4.54747e-13)">
                            <g>
                                <g transform="matrix(0.24,0,0,0.24,140.45,0)">
                                    <rect x="0" y="647.448" width="1471.25" height="5.585" style="fill:rgb(235,235,235);fill-opacity:0.2;"/>
                                </g>
                                <g transform="matrix(1.51777,0,0,1.51798,-156.836,-98.3243)">
                                    <g>
                                        <path d="M324.955,112.681L322.23,114.253L319.507,115.826L319.507,109.536L322.23,111.108L324.955,112.681Z" style="fill:rgb(246,248,249);fill-rule:nonzero;"/>
                                        <path d="M343.431,112.681C343.431,113.828 342.501,114.758 341.354,114.758C340.207,114.758 339.277,113.828 339.277,112.681C339.277,111.534 340.207,110.604 341.354,110.604C342.501,110.604 343.431,111.534 343.431,112.681Z" style="fill:rgb(246,248,249);fill-rule:nonzero;"/>
                                        <path d="M323.115,186.914C322.206,185.853 322.114,184.956 324.16,184.773C328.673,184.367 331.996,182.396 332.52,181.256C333.045,180.116 331.615,179.001 330.391,179.687C329.403,180.241 327.467,180.668 325.998,180.931C324.787,181.148 323.549,181.171 322.337,180.98C321.286,180.815 320.363,180.639 319.536,180.463C319.536,180.463 314.761,179.434 312.699,177.825L302.601,188.618L307.338,193.97C307.338,193.97 309.599,197.352 313.663,196.951C317.726,196.55 323.191,193.633 323.191,193.633C323.929,192.5 330.472,196.534 332.579,198.046C334.661,199.542 336.244,199.178 336.164,197.724C336.11,196.732 329.771,191.948 327.653,190.499C326.495,189.707 324.211,188.192 323.115,186.914Z" style="fill:rgb(250,186,160);fill-rule:nonzero;"/>
                                        <path d="M317.179,196.29C317.19,196.352 316.888,196.481 316.366,196.467C315.849,196.457 315.126,196.252 314.486,195.77C313.847,195.286 313.453,194.645 313.302,194.15C313.147,193.652 313.189,193.326 313.25,193.32C313.394,193.287 313.641,194.507 314.8,195.355C315.93,196.238 317.172,196.143 317.179,196.29Z" style="fill:rgb(247,152,110);fill-rule:nonzero;"/>
                                        <path d="M321.18,194.714C321.188,194.778 320.893,194.886 320.395,194.855C319.902,194.827 319.217,194.614 318.611,194.145C318.007,193.673 317.632,193.061 317.483,192.589C317.33,192.115 317.364,191.802 317.426,191.794C317.571,191.759 317.839,192.911 318.93,193.734C319.997,194.589 321.178,194.566 321.18,194.714Z" style="fill:rgb(247,152,110);fill-rule:nonzero;"/>
                                        <path d="M332.068,82.456C332.49,91.318 343.299,103.456 351.338,105.42C355.564,106.453 360.427,105.967 363.775,108.806C369.517,113.676 366.159,123.769 370.032,130.302C372.414,134.317 377.143,136.287 379.822,140.1C384.273,146.438 381.286,156.016 375.212,160.736C369.136,165.456 361.046,166.357 353.432,166.161C336.686,165.727 319.537,160.406 307.432,148.535C301.746,142.959 279.496,125.742 287.255,84.938L332.068,82.456Z" style="fill:rgb(255,218,197);fill-rule:nonzero;"/>
                                        <path d="M392.512,145.861L328.842,126.958C323.564,124.717 319.568,124.168 319.568,124.168L298.072,124.311C295.153,124.311 292.405,124.939 289.827,126.036L231.871,145.286C227.583,146.643 224.62,151.042 224.62,156.052C224.62,162.229 229.072,167.236 234.564,167.236L261.327,167.236C261.25,167.488 261.209,167.628 261.209,167.628L354.294,167.977L354.293,167.942L389.82,168.021C395.312,168.021 399.764,162.966 399.764,156.73C399.764,151.672 396.802,147.231 392.512,145.861Z" style="fill:rgb(240,82,95);fill-rule:nonzero;"/>
                                        <path d="M379.753,152.744C379.75,152.762 379.551,152.751 379.175,152.714C378.743,152.666 378.2,152.604 377.535,152.528C376.114,152.348 374.053,152.119 371.506,151.873C366.411,151.377 359.345,150.938 351.534,151.035C343.722,151.142 336.67,151.767 331.589,152.396C329.049,152.709 326.995,152.991 325.579,153.209C324.916,153.302 324.375,153.377 323.945,153.437C323.57,153.484 323.372,153.5 323.368,153.482C323.365,153.465 323.557,153.414 323.926,153.334C324.353,153.249 324.888,153.141 325.546,153.009C326.953,152.73 329.001,152.391 331.541,152.031C336.62,151.307 343.691,150.622 351.528,150.514C359.362,150.417 366.448,150.916 371.544,151.507C374.093,151.8 376.149,152.085 377.563,152.328C378.223,152.442 378.762,152.536 379.19,152.61C379.561,152.681 379.755,152.726 379.753,152.744Z" style="fill:rgb(24,46,53);fill-rule:nonzero;"/>
                                        <path d="M364.562,137.563L364.495,137.543C364.53,137.511 364.564,137.48 364.595,137.45C364.725,137.333 364.798,137.273 364.81,137.273C364.811,137.273 364.811,137.274 364.811,137.274C364.818,137.28 364.758,137.352 364.634,137.488C364.611,137.512 364.587,137.537 364.562,137.563Z" style="fill:rgb(168,175,177);fill-rule:nonzero;"/>
                                        <path d="M295.384,146.952C289.608,146.952 284.495,144.976 280.903,142.407C278.901,140.979 277.381,139.362 275.984,138.039C274.597,136.7 273.322,135.636 272.174,134.924C269.855,133.49 268.236,133.558 268.272,133.462L268.282,133.462C268.344,133.462 268.717,133.467 269.36,133.591C270.068,133.717 271.096,134.056 272.279,134.75C273.462,135.446 274.773,136.503 276.183,137.827C277.605,139.136 279.137,140.725 281.115,142.106C284.65,144.582 289.647,146.481 295.27,146.481C295.892,146.481 296.522,146.457 297.158,146.409C298.743,146.282 300.365,146.037 301.963,145.562C302.773,145.365 303.553,145.043 304.353,144.759C305.125,144.406 305.92,144.083 306.677,143.659C309.738,142.025 312.586,139.713 316.023,138.16C317.912,137.255 319.972,136.84 322,136.84C323.133,136.84 324.257,136.969 325.336,137.215C325.474,137.429 325.615,137.64 325.76,137.849C324.548,137.527 323.282,137.356 322.007,137.356C320.054,137.356 318.077,137.758 316.235,138.635C312.884,140.145 310.033,142.449 306.919,144.108C306.148,144.538 305.331,144.869 304.542,145.227C303.723,145.516 302.925,145.841 302.097,146.041C300.465,146.52 298.809,146.765 297.193,146.888C296.584,146.931 295.98,146.952 295.384,146.952ZM348.502,146.669C347.059,146.669 345.553,146.461 344.052,146.053C341.556,145.384 339.093,144.188 336.59,142.848C336.802,142.786 337.012,142.719 337.222,142.649C339.568,143.904 341.862,145.004 344.167,145.637C345.676,146.057 347.182,146.27 348.621,146.271C349.773,146.271 350.882,146.134 351.915,145.855C352.239,145.775 352.556,145.684 352.865,145.586C352.995,145.668 353.126,145.749 353.258,145.83C352.855,145.972 352.438,146.1 352.008,146.212C350.915,146.518 349.732,146.669 348.502,146.669ZM364.547,137.579L364.479,137.558C364.485,137.553 364.49,137.548 364.495,137.543L364.562,137.563C364.557,137.568 364.552,137.574 364.547,137.579Z" style="fill:rgb(248,183,191);fill-rule:nonzero;"/>
                                        <path d="M300.246,167.794L300.201,167.774L301.275,167.778L300.246,167.794Z" style="fill:rgb(15,35,41);fill-rule:nonzero;"/>
                                        <path d="M301.275,167.778L300.201,167.774L299.786,167.591L271.713,153.717L306.118,160.203L301.47,167.775L301.275,167.778Z" style="fill:rgb(216,62,72);fill-rule:nonzero;"/>
                                        <path d="M340.246,167.138L340.245,167.138C340.228,167.131 340.3,166.932 340.454,166.558C340.539,166.355 340.635,166.127 340.744,165.868C340.889,165.598 341.05,165.298 341.228,164.967C341.992,163.644 343.297,161.769 345.488,160.069C347.632,158.347 350.682,156.794 354.334,156.329C354.999,156.246 355.684,156.204 356.38,156.204C357.585,156.204 358.823,156.331 360.054,156.595C362.006,156.981 363.956,157.61 365.958,158.174C367.956,158.744 369.936,159.19 371.874,159.27C372.058,159.277 372.241,159.28 372.424,159.28C374.162,159.28 375.839,158.966 377.361,158.441C380.755,157.291 383.286,155.065 384.816,152.855C386.372,150.631 387.034,148.481 387.344,147.004C387.648,145.516 387.647,144.663 387.7,144.663C387.719,144.663 387.724,144.875 387.72,145.28C387.71,145.684 387.667,146.281 387.544,147.041C387.29,148.55 386.674,150.758 385.119,153.063C383.593,155.355 381.009,157.685 377.519,158.894C375.938,159.452 374.187,159.788 372.368,159.788C372.197,159.788 372.027,159.785 371.855,159.779C369.853,159.704 367.827,159.248 365.817,158.675C363.802,158.107 361.866,157.48 359.954,157.095C358.713,156.825 357.482,156.697 356.285,156.697C355.642,156.697 355.01,156.734 354.391,156.806C350.841,157.231 347.842,158.708 345.714,160.36C343.538,161.989 342.21,163.795 341.402,165.071C341.211,165.39 341.038,165.678 340.882,165.938C340.758,166.187 340.647,166.407 340.55,166.601C340.369,166.953 340.265,167.138 340.246,167.138Z" style="fill:rgb(248,183,191);fill-rule:nonzero;"/>
                                        <path d="M231.925,165.945C231.925,165.945 304.684,198.049 304.309,197.321C303.934,196.592 315.861,175.536 315.861,175.536L256.911,146.401L231.925,165.945Z" style="fill:rgb(240,82,95);fill-rule:nonzero;"/>
                                        <path d="M265.323,150.559C265.339,150.526 265.872,150.752 266.823,151.187C267.851,151.671 269.199,152.307 270.827,153.073C274.198,154.687 278.839,156.948 283.95,159.474C289.064,162.001 293.68,164.315 297.01,166.014C298.609,166.842 299.933,167.527 300.943,168.05C301.866,168.541 302.37,168.828 302.354,168.86C302.339,168.893 301.806,168.668 300.856,168.233C299.829,167.749 298.481,167.114 296.853,166.347C293.482,164.733 288.84,162.472 283.726,159.944C278.614,157.417 273.997,155.103 270.667,153.405C269.068,152.577 267.744,151.892 266.735,151.369C265.811,150.878 265.308,150.591 265.323,150.559Z" style="fill:rgb(24,46,53);fill-rule:nonzero;"/>
                                        <path d="M312.077,182.324L312.058,182.324C312.07,182.302 312.082,182.281 312.095,182.259C312.161,182.278 312.194,182.293 312.192,182.303C312.19,182.318 312.151,182.324 312.077,182.324Z" style="fill:rgb(253,227,217);fill-rule:nonzero;"/>
                                        <path d="M285.834,189.564C285.783,189.542 285.73,189.519 285.679,189.497C285.792,189.393 285.928,189.27 286.084,189.13C286.623,188.633 287.462,187.977 288.543,187.232C289.62,186.478 290.975,185.686 292.535,184.916C294.107,184.171 295.89,183.462 297.822,182.905C299.758,182.367 301.648,182.035 303.377,181.845C304.533,181.737 305.617,181.684 306.6,181.684C307.09,181.684 307.554,181.697 307.991,181.723C309.302,181.791 310.36,181.91 311.081,182.05C311.59,182.142 311.937,182.213 312.095,182.259C312.082,182.281 312.07,182.302 312.058,182.324C311.623,182.319 310.15,182.126 307.979,182.091C307.796,182.087 307.609,182.085 307.416,182.085C306.242,182.085 304.894,182.162 303.429,182.323C301.728,182.536 299.871,182.876 297.964,183.406C296.062,183.954 294.302,184.639 292.741,185.35C291.192,186.085 289.836,186.833 288.745,187.539C287.388,188.406 286.402,189.145 285.834,189.564Z" style="fill:rgb(248,183,191);fill-rule:nonzero;"/>
                                        <path d="M363.238,137.17L328.842,126.958C325.489,125.534 322.654,124.794 321.031,124.443C321.07,124.306 321.114,124.169 321.163,124.033L363.238,137.17Z" style="fill:rgb(15,35,41);fill-rule:nonzero;"/>
                                        <path d="M366.926,150.499C364.547,150.499 362.147,149.995 359.905,149.175C357.569,148.32 355.377,147.14 353.258,145.83C355.09,145.186 356.64,144.266 357.952,143.378C359.551,142.275 360.815,141.18 361.822,140.262C362.829,139.344 363.57,138.59 364.073,138.079C364.259,137.883 364.416,137.717 364.547,137.579L379.088,142.119C378.192,145.867 374.931,148.776 371.242,149.887C369.839,150.309 368.387,150.499 366.926,150.499ZM352.865,145.586C351.836,144.94 350.824,144.266 349.819,143.588C347.977,142.343 346.027,141.032 343.808,140.904C343.686,140.897 343.564,140.894 343.442,140.894C341.298,140.894 339.29,141.954 337.222,142.649C336.785,142.415 336.346,142.175 335.904,141.932C333.08,140.419 330.152,138.652 326.755,137.614C326.292,137.458 325.819,137.325 325.336,137.215C324.689,136.217 324.101,135.175 323.519,134.139C321.837,131.15 320.106,127.691 321.031,124.443C322.654,124.794 325.489,125.534 328.842,126.958L363.238,137.17L364.479,137.558C364.345,137.683 364.186,137.831 363.999,138.005C363.473,138.491 362.711,139.22 361.687,140.111C360.664,141.001 359.386,142.068 357.789,143.137C356.413,144.04 354.783,144.973 352.865,145.586ZM334.132,143.239C331.728,143.239 329.444,141.969 327.738,140.263C327,139.524 326.353,138.708 325.76,137.849C326.045,137.925 326.327,138.009 326.605,138.102C329.923,139.105 332.843,140.85 335.675,142.353C335.981,142.52 336.286,142.685 336.59,142.848C335.858,143.061 335.115,143.211 334.354,143.236C334.28,143.238 334.206,143.239 334.132,143.239Z" style="fill:rgb(216,62,72);fill-rule:nonzero;"/>
                                        <path d="M353.258,145.83C353.126,145.749 352.995,145.668 352.865,145.586C354.783,144.973 356.413,144.04 357.789,143.137C359.386,142.068 360.664,141.001 361.687,140.111C362.711,139.22 363.473,138.491 363.999,138.005C364.186,137.831 364.345,137.683 364.479,137.558L364.547,137.579C364.416,137.717 364.259,137.883 364.073,138.079C363.57,138.59 362.829,139.344 361.822,140.262C360.815,141.18 359.551,142.275 357.952,143.378C356.64,144.266 355.09,145.186 353.258,145.83ZM336.59,142.848C336.286,142.685 335.981,142.52 335.675,142.353C332.843,140.85 329.923,139.105 326.605,138.102C326.327,138.009 326.045,137.925 325.76,137.849C325.615,137.64 325.474,137.429 325.336,137.215C325.819,137.325 326.292,137.458 326.755,137.614C330.152,138.652 333.08,140.419 335.904,141.932C336.346,142.175 336.785,142.415 337.222,142.649C337.012,142.719 336.802,142.786 336.59,142.848Z" style="fill:rgb(214,149,152);fill-rule:nonzero;"/>
                                        <path d="M321.437,123.104C321.605,119.187 321.816,115.643 321.816,115.643C321.816,115.643 330.57,114.538 330.947,105.603C331.325,96.668 330.435,76.093 330.435,76.093L314.323,68.355L296.988,82.321L299.706,123.358C300.098,129.27 305.148,133.783 311.068,133.509C316.696,133.249 321.196,128.734 321.437,123.104Z" style="fill:rgb(250,186,160);fill-rule:nonzero;"/>
                                        <path d="M328.926,92.25C328.936,92.881 328.447,93.4 327.832,93.411C327.218,93.422 326.71,92.92 326.699,92.288C326.688,91.657 327.178,91.137 327.792,91.126C328.407,91.116 328.915,91.619 328.926,92.25Z" style="fill:rgb(24,46,53);fill-rule:nonzero;"/>
                                        <path d="M330.007,89.864C329.866,90.014 329.031,89.31 327.831,89.266C326.633,89.202 325.742,89.828 325.614,89.665C325.552,89.593 325.696,89.317 326.085,89.034C326.467,88.751 327.115,88.488 327.862,88.521C328.61,88.556 329.234,88.876 329.591,89.192C329.955,89.51 330.075,89.797 330.007,89.864Z" style="fill:rgb(24,46,53);fill-rule:nonzero;"/>
                                        <path d="M315.64,92.25C315.652,92.881 315.161,93.4 314.547,93.411C313.932,93.422 313.425,92.92 313.414,92.288C313.403,91.657 313.893,91.137 314.507,91.126C315.122,91.116 315.63,91.619 315.64,92.25Z" style="fill:rgb(24,46,53);fill-rule:nonzero;"/>
                                        <path d="M316.721,90.094C316.58,90.244 315.745,89.54 314.546,89.496C313.348,89.432 312.457,90.058 312.329,89.895C312.266,89.823 312.41,89.548 312.8,89.264C313.182,88.982 313.83,88.718 314.577,88.751C315.324,88.786 315.948,89.106 316.305,89.422C316.669,89.74 316.79,90.027 316.721,90.094Z" style="fill:rgb(24,46,53);fill-rule:nonzero;"/>
                                        <path d="M321.225,100.408C321.22,100.334 321.969,100.226 323.179,100.11C323.487,100.088 323.778,100.035 323.833,99.813C323.909,99.579 323.786,99.22 323.644,98.832C323.368,98.027 323.08,97.183 322.776,96.298C321.574,92.69 320.709,89.729 320.844,89.682C320.979,89.634 322.063,92.519 323.266,96.127C323.555,97.016 323.832,97.863 324.094,98.674C324.205,99.052 324.397,99.483 324.233,99.969C324.147,100.21 323.92,100.379 323.722,100.428C323.525,100.484 323.352,100.48 323.201,100.484C321.983,100.505 321.228,100.48 321.225,100.408Z" style="fill:rgb(24,46,53);fill-rule:nonzero;"/>
                                        <path d="M317.286,101.64C316.059,100.835 320.672,103.628 323.116,103.586C323.116,103.586 321.646,105.838 319.164,104.812C316.586,103.748 317.286,101.64 317.286,101.64Z" style="fill:white;fill-rule:nonzero;"/>
                                        <path d="M321.816,115.643C321.816,115.643 315.96,115.811 310.223,111.848C310.223,111.848 312.948,118.356 321.664,117.836L321.816,115.643Z" style="fill:rgb(247,152,110);fill-rule:nonzero;"/>
                                        <path d="M287.585,91.126C287.554,98.86 285.53,119.309 299.626,122.145L299.114,93.982C299.114,93.982 312.763,87.546 315.069,74.141L315.152,74.217C316.026,76.24 317.583,80.586 316.637,84.124L329.419,87.274L330.89,88.621C330.89,88.621 335.442,78.647 326.66,69.6C317.878,60.552 310.374,67.108 305.667,66.543C302.535,66.167 291.677,66.24 287.255,84.938L287.585,91.126Z" style="fill:rgb(255,227,210);fill-rule:nonzero;"/>
                                        <path d="M299.464,94.296C298.273,93.561 296.646,94.166 295.7,95.198C294.212,96.822 293.953,99.446 295.094,101.329C296.236,103.212 298.682,104.197 300.81,103.628" style="fill:rgb(250,186,160);fill-rule:nonzero;"/>
                                        <path d="M299.189,100.952C299.187,101.015 298.789,101.084 298.165,100.915C297.572,100.758 296.649,100.282 296.296,99.258C296.123,98.762 296.156,98.218 296.348,97.8C296.537,97.38 296.838,97.093 297.11,96.912C297.673,96.549 298.101,96.575 298.106,96.633C298.129,96.712 297.757,96.823 297.335,97.203C296.91,97.563 296.501,98.298 296.789,99.091C297.053,99.881 297.771,100.338 298.29,100.57C298.821,100.807 299.197,100.873 299.189,100.952Z" style="fill:rgb(247,152,110);fill-rule:nonzero;"/>
                                        <path d="M298.022,102.712C297.374,102.865 297.043,103.758 297.433,104.297C297.824,104.836 298.777,104.797 299.123,104.229C299.469,103.66 299.067,102.797 298.408,102.697" style="fill:rgb(240,82,95);fill-rule:nonzero;"/>
                                        <path d="M323.927,168.021L323.927,153.334C323.927,153.334 302.116,157.859 301.717,167.847L323.927,168.021Z" style="fill:rgb(250,186,160);fill-rule:nonzero;"/>
                                        <path d="M321.657,121.558C322.014,126.032 324.089,130.347 327.359,133.42C330.63,136.493 335.066,138.295 339.552,138.373C342.773,138.43 346.167,137.665 349.106,138.98C351.663,140.124 353.307,142.601 355.321,144.548C360.045,149.116 367.378,150.774 373.607,148.683C376.248,147.796 380.445,145.898 380.936,143.157C381.31,141.067 378.758,138.991 377.252,137.495C375.747,135.999 373.802,135.04 371.882,134.137C356.345,126.84 339.668,121.533 322.528,120.626" style="fill:rgb(255,227,210);fill-rule:nonzero;"/>
                                    </g>
                                </g>
                            </g>
                        </g>
                    </g>
                </g>
            </g>
        </g>
    </g>
</svg>
