<?xml version="1.0" encoding="UTF-8" standalone="no"?>
<!DOCTYPE svg PUBLIC "-//W3C//DTD SVG 1.1//EN" "http://www.w3.org/Graphics/SVG/1.1/DTD/svg11.dtd">
<svg width="100%" height="100%" viewBox="0 0 417 392" version="1.1" xmlns="http://www.w3.org/2000/svg" xmlns:xlink="http://www.w3.org/1999/xlink" xml:space="preserve" xmlns:serif="http://www.serif.com/" style="fill-rule:evenodd;clip-rule:evenodd;stroke-linejoin:round;stroke-miterlimit:2;">
    <g transform="matrix(1,0,0,1,-1043.64,-204.101)">
        <g transform="matrix(1,0,0,2.94722,0,0)">
            <g transform="matrix(1,0,0,0.339303,83.6387,15.773)">
                <g transform="matrix(1,0,0,1,-83.6387,77.6145)">
                    <rect x="1124" y="80" width="336" height="336" style="fill:rgb(238,66,102);"/>
                </g>
                <g transform="matrix(1,0,0,1,-133.413,133.413)">
                    <rect x="1124" y="80" width="336" height="336" style="fill:rgb(42,30,92);"/>
                </g>
                <g transform="matrix(0.254915,0,0,0.254915,1168.18,357.695)">
                    <g transform="matrix(1,0,0,1,-816.667,-752.083)">
                        <clipPath id="_clip1">
                            <rect x="0" y="0" width="1633.33" height="1504.17"/>
                        </clipPath>
                        <g clip-path="url(#_clip1)">
                            <g transform="matrix(4.16667,0,0,4.16667,0,0)">
                                <path d="M20.391,181.604C16.574,183.417 14.206,187.877 14.844,192.054C18.836,190.337 23.166,189.409 27.512,189.342" style="fill:rgb(225,226,225);fill-rule:nonzero;"/>
                                <path d="M17.632,183.614C15.6,185.515 19.981,180.518 21.768,179.956C23.555,179.393 25.485,179.788 27.315,180.185C35.713,182.012 44.331,183.929 51.48,188.697C58.916,193.658 64.102,201.262 69.1,208.674C70.026,210.048 70.979,211.49 71.181,213.136C71.383,214.78 70.574,216.678 68.981,217.137C68.206,217.36 67.377,217.219 66.582,217.076C62.664,216.371 58.746,215.666 54.828,214.961C49.47,213.996 43.883,212.934 39.576,209.603C34.636,205.784 32.204,199.64 29.992,193.8C28.298,189.327 23.941,186.989 21.507,182.872C21.507,182.872 19.781,181.604 17.632,183.614Z" style="fill:rgb(236,237,237);fill-rule:nonzero;"/>
                                <path d="M91.829,228.847C91.821,228.862 91.546,228.735 91.032,228.48C90.479,228.198 89.734,227.817 88.794,227.339C86.859,226.332 84.063,224.865 80.665,222.945C77.273,221.018 73.273,218.631 69.075,215.613C66.978,214.103 64.835,212.432 62.724,210.57C60.611,208.712 58.546,206.665 56.231,204.826C55.073,203.909 53.879,203.066 52.632,202.362C51.386,201.655 50.083,201.118 48.761,200.658C47.444,200.191 46.124,199.759 44.879,199.188C43.63,198.626 42.49,197.88 41.49,197.04C39.488,195.342 38.02,193.322 36.713,191.44C35.411,189.547 34.271,187.741 33.084,186.21C30.727,183.125 28.156,181.179 26.144,180.384C24.129,179.563 22.872,179.662 22.887,179.582C22.887,179.564 23.188,179.57 23.766,179.601C24.334,179.681 25.193,179.787 26.219,180.196C28.293,180.946 30.954,182.891 33.373,185.982C34.595,187.52 35.756,189.32 37.067,191.194C38.383,193.057 39.847,195.034 41.798,196.672C42.776,197.484 43.87,198.193 45.086,198.735C46.298,199.286 47.604,199.711 48.932,200.178C50.26,200.636 51.609,201.187 52.887,201.911C54.165,202.631 55.381,203.489 56.555,204.418C58.901,206.282 60.967,208.337 63.061,210.188C65.154,212.042 67.278,213.712 69.357,215.225C73.518,218.248 77.486,220.661 80.848,222.626C84.217,224.583 86.985,226.099 88.89,227.16C89.81,227.675 90.54,228.085 91.081,228.388C91.58,228.673 91.837,228.831 91.829,228.847Z" style="fill:rgb(225,226,225);fill-rule:nonzero;"/>
                                <g>
                                    <path d="M377.116,28.806L311.435,28.806C303.419,28.806 296.921,35.304 296.921,43.319L296.921,71.835C296.921,79.851 303.419,86.349 311.435,86.349L313.241,86.349L313.241,97.651L324.542,86.349L377.116,86.349C385.131,86.349 391.629,79.851 391.629,71.835L391.629,43.319C391.629,35.304 385.131,28.806 377.116,28.806Z" style="fill:rgb(0,153,153);fill-rule:nonzero;"/>
                                    <path d="M332.626,59.504C332.626,61.284 331.183,62.727 329.404,62.727C327.623,62.727 326.18,61.284 326.18,59.504C326.18,57.724 327.623,56.281 329.404,56.281C331.183,56.281 332.626,57.724 332.626,59.504Z" style="fill:white;fill-rule:nonzero;"/>
                                    <path d="M329.404,56.781C327.902,56.781 326.68,58.002 326.68,59.504C326.68,61.005 327.902,62.227 329.404,62.227C330.905,62.227 332.126,61.005 332.126,59.504C332.126,58.002 330.905,56.781 329.404,56.781ZM329.404,63.227C327.351,63.227 325.68,61.557 325.68,59.504C325.68,57.451 327.351,55.781 329.404,55.781C331.456,55.781 333.126,57.451 333.126,59.504C333.126,61.557 331.456,63.227 329.404,63.227Z" style="fill:rgb(251,253,253);fill-rule:nonzero;"/>
                                    <path d="M347.498,59.359C347.498,61.139 346.055,62.581 344.276,62.581C342.495,62.581 341.052,61.139 341.052,59.359C341.052,57.578 342.495,56.136 344.276,56.136C346.055,56.136 347.498,57.578 347.498,59.359Z" style="fill:white;fill-rule:nonzero;"/>
                                    <path d="M344.276,56.636C342.774,56.636 341.552,57.857 341.552,59.359C341.552,60.86 342.774,62.081 344.276,62.081C345.777,62.081 346.998,60.86 346.998,59.359C346.998,57.857 345.777,56.636 344.276,56.636ZM344.276,63.081C342.223,63.081 340.552,61.412 340.552,59.359C340.552,57.306 342.223,55.636 344.276,55.636C346.328,55.636 347.998,57.306 347.998,59.359C347.998,61.412 346.328,63.081 344.276,63.081Z" style="fill:rgb(251,253,253);fill-rule:nonzero;"/>
                                    <path d="M362.37,59.359C362.37,61.139 360.928,62.581 359.148,62.581C357.368,62.581 355.924,61.139 355.924,59.359C355.924,57.578 357.368,56.136 359.148,56.136C360.928,56.136 362.37,57.578 362.37,59.359Z" style="fill:white;fill-rule:nonzero;"/>
                                    <path d="M359.148,56.636C357.646,56.636 356.424,57.857 356.424,59.359C356.424,60.86 357.646,62.081 359.148,62.081C360.649,62.081 361.87,60.86 361.87,59.359C361.87,57.857 360.649,56.636 359.148,56.636ZM359.148,63.081C357.095,63.081 355.424,61.412 355.424,59.359C355.424,57.306 357.095,55.636 359.148,55.636C361.201,55.636 362.87,57.306 362.87,59.359C362.87,61.412 361.201,63.081 359.148,63.081Z" style="fill:rgb(251,253,253);fill-rule:nonzero;"/>
                                </g>
                                <path d="M48.284,128.263C51.59,132.423 57.196,134.895 56.581,138.198C56.035,141.138 53.413,150.032 53.652,153.013C53.963,156.889 57.525,159.583 60.806,161.67C64.087,163.757 67.734,166.217 68.402,170.047C68.98,173.36 67.085,176.75 67.729,180.05C68.545,184.228 72.94,186.546 76.872,188.178C83.586,190.965 90.412,193.484 97.327,195.728C98.898,188.689 96.374,180.887 90.978,176.101C88.444,173.852 85.29,172.175 83.49,169.304C81.343,165.878 81.592,161.549 81.311,157.516C81.03,153.482 79.706,148.918 76.008,147.285C73.947,146.375 71.368,146.502 69.748,144.937C67.752,143.008 68.356,139.74 67.753,137.031C66.91,133.247 63.498,130.457 59.812,129.252C56.127,128.048 52.16,128.149 48.284,128.263Z" style="fill:rgb(239,66,102);fill-rule:nonzero;"/>
                                <path d="M107.725,205.009C103.121,197.546 105.043,188.564 108.887,180.683C112.73,172.802 119.15,166.514 125.628,160.604C132.225,154.586 140.096,148.408 148.988,149.226C143.886,151.799 141.788,157.921 140.714,163.533C139.639,169.145 138.943,175.222 135.177,179.519C133.282,181.682 130.591,183.448 130.004,186.263C129.472,188.809 130.876,191.497 130.203,194.01C129.113,198.087 123.448,199.24 121.69,203.077C120.84,204.933 121.023,207.215 119.829,208.869C118.316,210.967 115.097,211.147 112.794,209.971C110.491,208.794 108.889,206.623 107.374,204.526" style="fill:rgb(239,66,102);fill-rule:nonzero;"/>
                                <path d="M109.433,226.077C109.433,226.077 108.444,224.691 107.111,221.931C105.773,219.172 104.142,215.049 102.237,209.924C101.279,207.362 100.253,204.549 99.081,201.559C97.9,198.576 96.624,195.382 94.927,192.212C94.092,190.621 93.087,189.072 91.857,187.684C90.562,186.342 89.006,185.208 87.366,184.142C85.727,183.068 83.992,182.059 82.338,180.845C80.69,179.637 79.104,178.224 77.918,176.444C76.707,174.673 76.157,172.542 76.033,170.5C75.878,168.451 75.999,166.44 75.839,164.506C75.677,162.58 75.233,160.673 74.216,159.142C73.699,158.389 73.056,157.738 72.284,157.283C71.518,156.817 70.674,156.492 69.828,156.196C68.15,155.609 66.345,155.119 65.031,153.855C63.695,152.589 63.356,150.727 63.344,149.132C63.322,147.502 63.518,145.957 63.469,144.485C63.432,143.017 63.086,141.629 62.59,140.377C61.57,137.868 59.98,135.922 58.436,134.43C56.878,132.934 55.35,131.849 54.093,130.987C52.829,130.134 51.819,129.508 51.14,129.077C50.821,128.873 50.566,128.71 50.369,128.583C50.196,128.47 50.11,128.408 50.115,128.4C50.119,128.393 50.214,128.439 50.396,128.538C50.601,128.653 50.864,128.801 51.194,128.987C51.892,129.39 52.918,129.988 54.206,130.818C55.484,131.658 57.04,132.725 58.637,134.219C60.221,135.712 61.861,137.672 62.931,140.239C63.452,141.519 63.821,142.952 63.87,144.471C63.931,145.985 63.744,147.538 63.776,149.123C63.799,150.686 64.133,152.386 65.35,153.527C66.548,154.676 68.28,155.159 69.984,155.742C70.842,156.039 71.719,156.371 72.539,156.866C73.368,157.351 74.076,158.059 74.628,158.864C75.722,160.503 76.176,162.488 76.347,164.462C76.514,166.451 76.394,168.455 76.55,170.46C76.677,172.463 77.197,174.461 78.352,176.157C79.487,177.859 81.026,179.239 82.644,180.428C84.267,181.62 85.996,182.631 87.645,183.714C89.296,184.792 90.884,185.951 92.216,187.341C93.496,188.789 94.511,190.373 95.35,191.984C97.054,195.197 98.317,198.405 99.483,201.403C100.641,204.406 101.646,207.227 102.583,209.796C104.442,214.936 106.017,219.069 107.294,221.845C107.95,223.222 108.453,224.298 108.863,224.988C109.043,225.321 109.187,225.587 109.299,225.793C109.394,225.976 109.44,226.072 109.433,226.077Z" style="fill:rgb(24,46,53);fill-rule:nonzero;"/>
                                <path d="M148.775,149.122C148.782,149.139 148.51,149.285 147.987,149.548C147.462,149.808 146.698,150.212 145.746,150.782C143.845,151.914 141.17,153.758 138.458,156.654C137.107,158.101 135.758,159.811 134.529,161.787C133.93,162.784 133.344,163.832 132.814,164.956C132.28,166.077 131.766,167.256 131.169,168.44C130.57,169.621 129.879,170.814 128.959,171.885C128.048,172.967 126.84,173.828 125.561,174.492C124.29,175.177 122.949,175.756 121.783,176.606C120.61,177.44 119.72,178.641 119.319,180.069C118.482,182.917 118.936,186.01 117.966,188.821C116.993,191.61 115.17,193.78 113.934,196.065C112.675,198.343 112.031,200.779 111.79,203.082C111.545,205.391 111.66,207.57 111.924,209.53C112.482,213.458 113.502,216.533 114.153,218.656C114.481,219.683 114.742,220.497 114.933,221.099C115.11,221.657 115.195,221.954 115.178,221.96C115.169,221.963 115.136,221.893 115.078,221.754C115.012,221.585 114.932,221.381 114.834,221.133C114.627,220.584 114.328,219.772 113.961,218.72C113.249,216.612 112.171,213.546 111.559,209.582C111.269,207.602 111.129,205.393 111.361,203.037C111.587,200.69 112.23,198.183 113.513,195.836C114.77,193.495 116.566,191.326 117.483,188.658C118.411,185.994 117.953,182.934 118.822,179.916C119.238,178.404 120.234,177.06 121.477,176.187C122.712,175.293 124.072,174.714 125.32,174.042C126.582,173.389 127.706,172.59 128.582,171.559C129.466,170.539 130.145,169.383 130.742,168.223C131.335,167.058 131.856,165.885 132.401,164.757C132.943,163.627 133.547,162.562 134.163,161.559C135.424,159.566 136.807,157.848 138.19,156.401C140.968,153.505 143.7,151.692 145.644,150.607C146.619,150.059 147.401,149.683 147.942,149.454C148.481,149.22 148.767,149.106 148.775,149.122Z" style="fill:rgb(24,46,53);fill-rule:nonzero;"/>
                                <path d="M260.67,184.28C270.054,183.468 279.586,182.658 288.911,183.782C298.234,184.905 307.487,188.244 312.539,194.084C316.794,199.002 317.625,205.044 318.347,210.839C320.407,227.387 322.466,243.935 324.526,260.483C325.05,264.7 325.552,269.066 323.666,273.07C319.546,281.818 304.373,285.947 292.287,283.215C280.2,280.482 271.447,272.456 267.136,263.757C262.825,255.059 262.276,245.641 261.769,236.395C260.854,219.629 259.937,202.862 259.021,186.095C259.428,185.83 259.834,185.565 260.243,185.301L260.67,184.28Z" style="fill:rgb(24,46,53);fill-rule:nonzero;"/>
                                <path d="M0,270.063L2.912,280.303L280.794,361L376.377,297.921L376.377,289.317L0,270.063Z" style="fill:rgb(12,113,113);fill-rule:nonzero;"/>
                                <path d="M99.685,223.768L376.377,289.317L280.794,351.688L0,270.063L99.685,223.768Z" style="fill:rgb(0,153,153);fill-rule:nonzero;"/>
                                <path d="M245.668,280.049L192.747,305.628L95.724,279.167L143.353,253.147L245.668,280.049Z" style="fill:rgb(0,113,113);fill-rule:nonzero;"/>
                                <path d="M187.315,278.967L201.366,283.607L214.373,276.535L192.724,269.59L180.079,276.143L187.315,278.967Z" style="fill:rgb(14,75,75);fill-rule:nonzero;"/>
                                <path d="M83.375,207.723C83.816,209.486 95.724,279.167 95.724,279.167L192.747,305.628L179.958,231.097L83.375,207.723Z" style="fill:rgb(0,113,113);fill-rule:nonzero;"/>
                                <path d="M185.686,264.477C185.828,264.453 187.523,273.646 189.473,285.008C191.423,296.373 192.889,305.603 192.747,305.628C192.605,305.652 190.91,296.461 188.96,285.096C187.01,273.734 185.544,264.502 185.686,264.477Z" style="fill:rgb(55,90,101);fill-rule:nonzero;"/>
                                <path d="M140.659,254.835C141.84,257.883 140.67,261.179 138.046,262.193C135.423,263.21 132.339,261.563 131.159,258.516C129.978,255.468 131.148,252.173 133.771,251.157C136.395,250.141 139.479,251.787 140.659,254.835Z" style="fill:rgb(14,75,75);fill-rule:nonzero;"/>
                                <path d="M179.958,231.097C184.275,226.11 186.788,192.056 186.788,192.056L218.81,195.659C218.81,195.659 214.207,245.472 199.579,251.448L184.951,257.425" style="fill:rgb(250,186,160);fill-rule:nonzero;"/>
                                <path d="M285.08,241.762C285.08,241.762 299.246,257.625 298.392,270.843L273.264,264.89L282.951,241.762" style="fill:rgb(221,53,88);fill-rule:nonzero;"/>
                                <path d="M305.26,197.343C304.648,169.558 293.665,155.958 293.213,154.193C279.289,139.055 261.249,140.134 261.249,140.134L231.42,140.618C231.42,140.618 220.059,141.651 209.329,147.043L208.593,147.257L208.599,147.41C200.167,151.818 191.104,158.681 189.671,170.25L186.067,192.776L206.803,193.764C204.695,201.306 202.364,202.275 204.791,209.721L212.695,222.826C212.695,233.282 211.991,226.952 208.782,249.613L288.908,268.596C293.553,264.016 290.017,251.611 277.613,229.027C275.759,225.652 285.37,191.651 285.37,191.651L303.302,197.933L305.26,197.343Z" style="fill:rgb(238,66,102);fill-rule:nonzero;"/>
                                <path d="M211.471,185.201C211.502,185.22 211.242,185.723 210.749,186.617C210.258,187.513 209.531,188.799 208.686,190.412C207.039,193.616 204.751,198.27 204.531,203.821C204.412,206.573 204.934,209.197 205.907,211.369C206.872,213.553 208.168,215.308 209.298,216.725C210.439,218.139 211.444,219.223 212.124,219.982C212.808,220.741 213.18,221.167 213.153,221.193C213.128,221.218 212.707,220.839 211.978,220.123C211.251,219.404 210.204,218.356 209.014,216.959C207.837,215.559 206.487,213.8 205.469,211.565C204.442,209.342 203.887,206.623 204.011,203.803C204.107,200.976 204.787,198.347 205.625,196.068C206.476,193.788 207.475,191.839 208.361,190.238C209.252,188.638 210.03,187.379 210.575,186.515C211.121,185.65 211.44,185.184 211.471,185.201Z" style="fill:rgb(24,46,53);fill-rule:nonzero;"/>
                                <path d="M302.366,173.305C302.371,173.311 302.293,173.38 302.136,173.508C301.977,173.632 301.748,173.831 301.423,174.058C300.767,174.494 299.75,175.1 298.313,175.566C295.458,176.543 290.908,176.716 285.741,175.158C283.16,174.396 280.437,173.278 277.499,172.166C274.565,171.076 271.371,169.933 267.866,169.673C264.373,169.33 260.661,169.802 256.962,170.778C253.251,171.748 249.533,173.185 245.717,174.639C241.901,176.092 238.138,177.486 234.358,178.355C230.589,179.238 226.789,179.522 223.243,179.002C219.7,178.45 216.527,177.184 213.629,175.964C210.73,174.731 208.059,173.523 205.525,172.697C202.995,171.864 200.607,171.436 198.498,171.327C196.388,171.233 194.563,171.468 193.133,171.868C190.257,172.701 189.015,173.928 188.972,173.839C188.967,173.832 189.046,173.766 189.206,173.643C189.369,173.521 189.605,173.332 189.932,173.11C190.603,172.695 191.628,172.107 193.077,171.674C194.519,171.237 196.369,170.969 198.51,171.036C200.65,171.119 203.073,171.527 205.638,172.347C208.206,173.159 210.897,174.353 213.796,175.565C216.694,176.767 219.84,178 223.314,178.527C226.79,179.023 230.519,178.737 234.244,177.858C237.978,176.993 241.717,175.604 245.532,174.152C249.346,172.7 253.083,171.258 256.833,170.285C260.571,169.305 264.349,168.832 267.911,169.195C271.488,169.476 274.716,170.652 277.653,171.762C280.594,172.896 283.296,174.029 285.847,174.806C290.944,176.39 295.422,176.274 298.252,175.373C301.111,174.48 302.32,173.216 302.366,173.305Z" style="fill:rgb(24,46,53);fill-rule:nonzero;"/>
                                <path d="M277.766,222.987C277.771,223.004 277.549,223.089 277.121,223.234C276.641,223.389 276.016,223.589 275.24,223.838C273.597,224.331 271.209,225.056 268.161,225.532C266.637,225.769 264.943,225.899 263.122,225.827C261.301,225.75 259.372,225.394 257.414,224.822C253.482,223.673 249.501,221.585 245.152,219.933C242.967,219.132 240.783,218.498 238.632,218.062C236.479,217.642 234.373,217.393 232.361,217.269C228.331,217.083 224.686,217.405 221.692,217.999C218.695,218.584 216.323,219.32 214.723,219.923C213.91,220.191 213.308,220.477 212.882,220.628C212.461,220.79 212.236,220.868 212.228,220.852C212.221,220.835 212.431,220.726 212.839,220.532C213.253,220.351 213.844,220.033 214.65,219.733C216.236,219.07 218.606,218.274 221.619,217.638C224.63,216.993 228.31,216.628 232.385,216.79C234.42,216.902 236.551,217.143 238.732,217.561C240.91,217.996 243.124,218.635 245.334,219.444C249.73,221.116 253.685,223.207 257.551,224.362C259.478,224.938 261.361,225.302 263.144,225.396C264.927,225.485 266.599,225.378 268.109,225.168C271.131,224.743 273.528,224.075 275.183,223.643C275.971,223.433 276.604,223.264 277.091,223.134C277.529,223.02 277.761,222.97 277.766,222.987Z" style="fill:rgb(24,46,53);fill-rule:nonzero;"/>
                                <path d="M241.438,252.332C241.433,252.363 240.956,252.329 240.104,252.189C239.25,252.053 238.029,251.778 236.546,251.347C233.565,250.524 229.643,248.827 225.167,247.504C220.691,246.197 216.363,246.084 213.418,246.863C210.447,247.604 208.961,248.92 208.9,248.804C208.889,248.79 208.976,248.708 209.154,248.566C209.338,248.433 209.588,248.199 209.963,247.982C210.684,247.501 211.826,246.935 213.324,246.507C216.322,245.614 220.766,245.675 225.311,247.003C229.842,248.345 233.724,250.091 236.655,250.995C238.112,251.468 239.309,251.794 240.144,251.991C240.979,252.19 241.444,252.293 241.438,252.332Z" style="fill:rgb(24,46,53);fill-rule:nonzero;"/>
                                <path d="M281.803,236.931C280.54,234.448 279.144,231.816 277.613,229.027L282.083,236.826L281.803,236.931ZM277.613,229.027C277.463,228.754 277.388,228.28 277.377,227.64C277.447,228.498 277.613,229.027 277.613,229.027ZM277.629,224.406C278.094,220.929 279.143,216.011 280.323,211.041C279.131,216.14 278.206,220.972 277.629,224.406ZM281.048,208.044C281.063,207.987 281.077,207.929 281.091,207.872L281.091,207.874C281.077,207.931 281.063,207.988 281.048,208.044Z" style="fill:rgb(19,41,47);fill-rule:nonzero;"/>
                                <path d="M276.745,238.819C274.117,234.475 272.791,229.6 272.306,224.671C273.456,224.375 274.437,224.079 275.24,223.838C276.016,223.589 276.641,223.389 277.121,223.234C277.549,223.089 277.771,223.004 277.766,222.987C277.765,222.985 277.761,222.984 277.753,222.984C277.698,222.984 277.472,223.035 277.091,223.134C276.604,223.264 275.971,223.433 275.183,223.643C274.384,223.851 273.411,224.115 272.279,224.38C270.782,208.043 278.417,191.212 278.417,191.212L281.091,207.872C281.077,207.929 281.063,207.987 281.048,208.044C280.797,209.048 280.555,210.049 280.323,211.041C279.143,216.011 278.094,220.929 277.629,224.406C277.571,224.756 277.516,225.091 277.464,225.411C277.326,226.27 277.328,227.036 277.377,227.64C277.388,228.28 277.463,228.754 277.613,229.027C279.144,231.816 280.54,234.448 281.803,236.931L276.745,238.819Z" style="fill:rgb(221,53,88);fill-rule:nonzero;"/>
                                <path d="M272.306,224.671C272.297,224.573 272.288,224.478 272.279,224.38C273.411,224.115 274.384,223.851 275.183,223.643C275.971,223.433 276.604,223.264 277.091,223.134C277.472,223.035 277.698,222.984 277.753,222.984C277.761,222.984 277.765,222.985 277.766,222.987C277.771,223.004 277.549,223.089 277.121,223.234C276.641,223.389 276.016,223.589 275.24,223.838C274.437,224.079 273.456,224.375 272.306,224.671Z" style="fill:rgb(19,41,47);fill-rule:nonzero;"/>
                                <path d="M256.614,87.292C263.049,92.906 265.923,101.749 266.134,110.287C266.345,118.825 265.589,128.515 265.793,137.427L278.85,137.17C287.485,137.427 297.261,136.52 305.523,135.881C306.896,135.775 308.337,135.642 309.477,134.869C311.376,133.58 311.803,131.008 312.062,128.726C312.469,125.136 312.868,121.428 311.833,117.966C310.799,114.503 307.947,111.317 304.342,111.06C303.073,110.97 301.739,111.233 300.559,110.755C299.171,110.194 298.348,108.727 298.015,107.269C297.682,105.81 297.733,104.292 297.51,102.812C296.849,98.401 293.57,94.484 289.343,93.056C286.666,92.152 283.434,92.027 281.674,89.816C279.535,87.129 280.937,83.24 281.05,79.807C281.204,75.084 278.42,70.389 274.202,68.259C269.984,66.13 264.552,66.679 260.845,69.609" style="fill:rgb(24,46,53);fill-rule:nonzero;"/>
                                <path d="M246.509,156.495C238.317,156.495 231.578,150.038 231.23,141.852C230.951,135.277 230.72,129.038 230.72,129.038C230.72,129.038 218.178,127.872 217.258,115.461C216.338,103.049 216.732,74.395 216.732,74.395C230.729,67.328 247.454,68.39 260.445,77.171L262.373,78.474L261.802,141.34C261.726,149.732 254.902,156.495 246.509,156.495Z" style="fill:rgb(250,186,160);fill-rule:nonzero;"/>
                                <path d="M222.233,97.942C222.929,97.227 222.914,96.083 222.2,95.387C221.485,94.69 220.341,94.705 219.644,95.419C218.948,96.134 218.962,97.279 219.676,97.975C220.391,98.672 221.536,98.657 222.233,97.942Z" style="fill:rgb(24,46,53);fill-rule:nonzero;"/>
                                <path d="M217.813,94.141C218.02,94.343 219.182,93.329 220.892,93.216C222.601,93.077 223.899,93.91 224.075,93.678C224.161,93.575 223.943,93.199 223.375,92.82C222.818,92.443 221.881,92.105 220.816,92.184C219.75,92.262 218.873,92.735 218.377,93.189C217.872,93.647 217.712,94.051 217.813,94.141Z" style="fill:rgb(24,46,53);fill-rule:nonzero;"/>
                                <path d="M237.604,95.203C236.787,95.777 236.591,96.904 237.165,97.721C237.74,98.537 238.867,98.733 239.683,98.159C240.499,97.585 240.696,96.457 240.121,95.641C239.547,94.825 238.42,94.629 237.604,95.203Z" style="fill:rgb(24,46,53);fill-rule:nonzero;"/>
                                <path d="M236.476,94.522C236.684,94.725 237.846,93.711 239.556,93.598C241.264,93.459 242.562,94.292 242.738,94.06C242.825,93.956 242.607,93.581 242.039,93.202C241.482,92.826 240.545,92.487 239.479,92.566C238.414,92.644 237.537,93.117 237.041,93.571C236.536,94.029 236.376,94.433 236.476,94.522Z" style="fill:rgb(24,46,53);fill-rule:nonzero;"/>
                                <path d="M230.407,107.812C230.41,107.678 229.338,107.529 227.604,107.396C227.154,107.376 226.796,107.296 226.748,107.058C226.652,106.791 226.795,106.303 226.99,105.756C227.361,104.598 227.736,103.425 228.128,102.197C229.692,97.129 230.75,92.958 230.494,92.878C230.236,92.799 228.76,96.842 227.197,101.909C226.829,103.145 226.479,104.325 226.131,105.491C225.999,106.019 225.726,106.643 226.001,107.367C226.148,107.728 226.517,107.974 226.817,108.033C227.119,108.105 227.371,108.089 227.586,108.086C229.326,108.041 230.404,107.947 230.407,107.812Z" style="fill:rgb(24,46,53);fill-rule:nonzero;"/>
                                <path d="M230.689,128.86C230.689,128.86 238.579,129.014 246.598,123.259C246.598,123.259 243.322,132.434 230.859,132.08L230.689,128.86Z" style="fill:rgb(247,152,110);fill-rule:nonzero;"/>
                                <path d="M261.526,104.034C257.028,107.653 251.596,98.289 249.185,92.413C246.774,86.538 246.029,80.044 245.678,73.639C245.564,71.541 245.545,69.239 246.764,67.589C248.051,65.847 248.495,67.864 250.03,66.349C252.679,63.729 250.161,63.719 252.808,64.039C257.338,64.589 267.214,72.439 268.043,77.188C268.872,81.937 268.202,86.822 267.53,91.599C267.223,93.781 266.916,95.963 266.61,98.145C266.393,99.687 266.154,101.29 265.317,102.568C264.481,103.845 262.855,104.677 261.526,104.034Z" style="fill:rgb(24,46,53);fill-rule:nonzero;"/>
                                <path d="M261.683,93.822C261.691,92.819 262.474,91.971 263.477,91.943C265.794,91.879 269.585,92.798 269.941,99.195C270.45,108.331 261.661,106.052 261.631,105.791C261.607,105.586 261.66,97.373 261.683,93.822Z" style="fill:rgb(250,186,160);fill-rule:nonzero;"/>
                                <path d="M263.644,102.2C263.683,102.168 263.81,102.302 264.085,102.411C264.354,102.516 264.81,102.574 265.277,102.369C266.222,101.961 266.95,100.383 266.902,98.734C266.879,97.901 266.661,97.119 266.329,96.48C266.013,95.827 265.555,95.384 265.065,95.325C264.575,95.24 264.246,95.55 264.149,95.813C264.041,96.076 264.109,96.255 264.062,96.273C264.038,96.298 263.857,96.131 263.91,95.749C263.938,95.566 264.033,95.345 264.238,95.157C264.447,94.967 264.764,94.858 265.105,94.875C265.812,94.885 266.482,95.498 266.846,96.2C267.248,96.902 267.514,97.78 267.539,98.716C267.583,100.559 266.737,102.335 265.438,102.79C264.804,102.994 264.257,102.83 263.968,102.629C263.672,102.42 263.613,102.218 263.644,102.2Z" style="fill:rgb(247,152,110);fill-rule:nonzero;"/>
                                <path d="M246.71,67.698C244.158,76.105 237.539,83.175 229.32,86.277C228.616,86.543 227.757,86.76 227.164,86.296C226.403,85.698 226.698,84.44 227.333,83.709C227.969,82.978 228.866,82.466 229.332,81.617C227.783,82.495 226.233,83.372 224.683,84.25C223.922,84.681 223.142,85.119 222.281,85.261C221.418,85.403 220.444,85.191 219.896,84.511C219.348,83.83 219.445,82.649 220.215,82.239C219.166,83.958 216.469,84.121 214.926,82.827C213.383,81.532 212.957,79.238 213.472,77.291C213.987,75.344 215.289,73.699 216.733,72.295C223.168,66.037 232.509,63.77 241.464,63.154C244.227,62.964 247.033,62.909 249.736,63.514C252.438,64.118 256.614,63.896 261.483,69.231" style="fill:rgb(24,46,53);fill-rule:nonzero;"/>
                                <path d="M224.735,89.47C224.636,89.754 222.999,89.392 220.989,89.447C218.977,89.475 217.357,89.903 217.246,89.623C217.124,89.376 218.734,88.444 220.967,88.406C223.2,88.352 224.846,89.219 224.735,89.47Z" style="fill:rgb(24,46,53);fill-rule:nonzero;"/>
                                <path d="M243,89.676C242.899,89.957 241.325,89.612 239.382,89.522C237.441,89.412 235.839,89.593 235.767,89.303C235.686,89.039 237.313,88.367 239.436,88.482C241.558,88.585 243.108,89.421 243,89.676Z" style="fill:rgb(24,46,53);fill-rule:nonzero;"/>
                                <path d="M266.911,84.316C266.767,84.233 267.257,83.323 267.607,81.757C267.964,80.21 268.089,77.935 267.277,75.666C266.457,73.398 264.911,71.724 263.65,70.759C262.382,69.775 261.424,69.387 261.483,69.231C261.514,69.116 262.591,69.258 264.069,70.154C265.53,71.024 267.343,72.785 268.256,75.313C269.163,77.843 268.887,80.355 268.316,81.957C267.747,83.589 267.008,84.385 266.911,84.316Z" style="fill:rgb(55,90,101);fill-rule:nonzero;"/>
                                <path d="M278.417,191.212L285.532,235.539L228.207,256.944L237.48,276.067L297.813,257.223C307.665,254.144 313.686,244.215 311.86,234.056L304.158,191.212L278.417,191.212Z" style="fill:rgb(250,186,160);fill-rule:nonzero;"/>
                                <path d="M228.553,256.815C228.553,256.815 217.882,253.414 212.766,252.109C210.772,251.601 202.233,256.106 196.335,259.852C196.335,259.852 188.212,264.667 188.87,266.15C189.592,267.783 192.589,267.449 197.364,265.203C197.364,265.203 195.698,270.043 198.969,269.938C198.969,269.938 197.346,275.169 200.412,275.71C203.478,276.251 204.2,269.577 206.905,269.217C209.61,268.856 215.202,268.495 215.202,268.495C215.202,268.495 219.857,276.206 223.464,276.747C227.072,277.288 237.822,276.067 237.822,276.067L228.553,256.815Z" style="fill:rgb(250,186,160);fill-rule:nonzero;"/>
                                <path d="M206.956,258.935C207.033,259.056 205.219,260.339 202.905,261.797C200.59,263.257 198.652,264.342 198.575,264.22C198.498,264.099 200.312,262.816 202.627,261.356C204.941,259.897 206.879,258.813 206.956,258.935Z" style="fill:rgb(247,152,110);fill-rule:nonzero;"/>
                                <path d="M207.87,261.908C207.931,262.038 205.729,263.183 202.954,264.464C200.178,265.745 197.878,266.678 197.818,266.547C197.758,266.416 199.959,265.272 202.735,263.99C205.511,262.71 207.81,261.776 207.87,261.908Z" style="fill:rgb(247,152,110);fill-rule:nonzero;"/>
                                <path d="M206.216,269.116C206.235,269.259 204.703,269.586 202.794,269.848C200.885,270.109 199.321,270.206 199.302,270.063C199.282,269.921 200.814,269.594 202.724,269.332C204.632,269.07 206.196,268.974 206.216,269.116Z" style="fill:rgb(247,152,110);fill-rule:nonzero;"/>
                                <g transform="matrix(0.276,0,0,0.24,-33.732,0)">
                                    <path d="M937,471.35C937,471.35 939.813,474.1 947.736,474.668C949.863,474.82 952.345,474.801 955.228,474.449C956.934,474.241 958.781,473.922 960.754,473.404C962.448,472.959 964.23,472.353 966.114,471.627C968.542,470.69 971.113,469.534 973.874,468.141C976.25,466.942 978.71,465.553 981.348,464C977.287,465.42 973.594,466.479 970.193,467.417C967.508,468.157 965.037,468.755 962.747,469.302C960.987,469.723 959.34,470.093 957.804,470.452C954.992,471.108 952.544,471.638 950.383,471.978C940.759,473.491 937,471.35 937,471.35Z" style="fill:rgb(24,46,53);"/>
                                </g>
                            </g>
                        </g>
                    </g>
                </g>
            </g>
        </g>
    </g>
</svg>
