<?xml version="1.0" encoding="UTF-8" standalone="no"?>
<!DOCTYPE svg PUBLIC "-//W3C//DTD SVG 1.1//EN" "http://www.w3.org/Graphics/SVG/1.1/DTD/svg11.dtd">
<svg width="100%" height="100%" viewBox="0 0 249 54" version="1.1" xmlns="http://www.w3.org/2000/svg" xmlns:xlink="http://www.w3.org/1999/xlink" xml:space="preserve" xmlns:serif="http://www.serif.com/" style="fill-rule:evenodd;clip-rule:evenodd;stroke-linejoin:round;stroke-miterlimit:2;">
    <g transform="matrix(1,0,0,1,-460,-23.2091)">
        <g transform="matrix(1,0,0,2.94722,0,0)">
            <g transform="matrix(0.278549,0,0,0.0666617,400.703,5.63007)">
                <g transform="matrix(0.919999,0,0,1.30437,-118.117,-32.9493)">
                    <g transform="matrix(144,0,0,144,639.561,195.558)">
                        <path d="M0.582,-0.204C0.582,-0.165 0.572,-0.129 0.552,-0.097C0.532,-0.065 0.503,-0.04 0.464,-0.021C0.425,-0.002 0.379,0.007 0.325,0.007C0.243,0.007 0.175,-0.013 0.123,-0.052C0.07,-0.091 0.041,-0.147 0.036,-0.22L0.245,-0.22C0.247,-0.195 0.255,-0.177 0.268,-0.165C0.281,-0.153 0.298,-0.147 0.317,-0.147C0.334,-0.147 0.348,-0.151 0.358,-0.16C0.367,-0.169 0.372,-0.181 0.372,-0.197C0.372,-0.218 0.362,-0.235 0.343,-0.247C0.324,-0.258 0.293,-0.271 0.251,-0.285C0.206,-0.3 0.169,-0.315 0.141,-0.33C0.112,-0.345 0.087,-0.367 0.066,-0.396C0.045,-0.425 0.034,-0.463 0.034,-0.509C0.034,-0.553 0.045,-0.591 0.068,-0.623C0.091,-0.654 0.122,-0.678 0.161,-0.695C0.2,-0.711 0.245,-0.719 0.295,-0.719C0.376,-0.719 0.441,-0.7 0.49,-0.662C0.538,-0.623 0.564,-0.569 0.569,-0.5L0.358,-0.5C0.355,-0.522 0.349,-0.538 0.338,-0.549C0.327,-0.56 0.312,-0.565 0.294,-0.565C0.279,-0.565 0.267,-0.561 0.258,-0.553C0.249,-0.545 0.245,-0.533 0.245,-0.517C0.245,-0.497 0.255,-0.481 0.274,-0.47C0.293,-0.459 0.322,-0.446 0.363,-0.432C0.408,-0.416 0.445,-0.4 0.474,-0.385C0.503,-0.37 0.529,-0.347 0.55,-0.318C0.571,-0.289 0.582,-0.251 0.582,-0.204Z" style="fill:rgb(42,30,92);fill-rule:nonzero;"/>
                    </g>
                    <g transform="matrix(144,0,0,144,720.777,195.558)">
                        <path d="M0.501,-0.118L0.25,-0.118L0.211,0L0.004,0L0.263,-0.705L0.49,-0.705L0.748,0L0.54,0L0.501,-0.118ZM0.452,-0.266L0.376,-0.496L0.299,-0.266L0.452,-0.266Z" style="fill:rgb(42,30,92);fill-rule:nonzero;"/>
                    </g>
                    <g transform="matrix(144,0,0,144,821.865,195.558)">
                        <path d="M0.535,-0.708L0.535,-0.551L0.251,-0.551L0.251,-0.425L0.463,-0.425L0.463,-0.277L0.251,-0.277L0.251,0L0.054,0L0.054,-0.708L0.535,-0.708Z" style="fill:rgb(42,30,92);fill-rule:nonzero;"/>
                    </g>
                    <g transform="matrix(144,0,0,144,895.593,195.558)">
                        <path d="M0.251,-0.551L0.251,-0.434L0.48,-0.434L0.48,-0.285L0.251,-0.285L0.251,-0.157L0.51,-0.157L0.51,0L0.054,0L0.054,-0.708L0.51,-0.708L0.51,-0.551L0.251,-0.551Z" style="fill:rgb(42,30,92);fill-rule:nonzero;"/>
                    </g>
                    <g transform="matrix(144,0,0,144,967.017,195.558)">
                        <path d="M0.266,-0.157L0.564,-0.157L0.564,0L0.048,0L0.048,-0.149L0.341,-0.551L0.05,-0.551L0.05,-0.708L0.563,-0.708L0.563,-0.559L0.266,-0.157Z" style="fill:rgb(42,30,92);fill-rule:nonzero;"/>
                    </g>
                    <g transform="matrix(144,0,0,144,1047.95,195.558)">
                        <path d="M0.395,-0.719C0.462,-0.719 0.523,-0.704 0.578,-0.673C0.632,-0.642 0.676,-0.598 0.708,-0.543C0.739,-0.488 0.755,-0.425 0.755,-0.356C0.755,-0.287 0.739,-0.224 0.707,-0.169C0.675,-0.114 0.632,-0.071 0.577,-0.04C0.522,-0.009 0.461,0.007 0.395,0.007C0.329,0.007 0.268,-0.009 0.213,-0.04C0.158,-0.071 0.114,-0.114 0.082,-0.169C0.05,-0.224 0.034,-0.287 0.034,-0.356C0.034,-0.425 0.05,-0.488 0.082,-0.543C0.114,-0.598 0.158,-0.642 0.213,-0.673C0.268,-0.704 0.329,-0.719 0.395,-0.719ZM0.395,-0.537C0.345,-0.537 0.306,-0.521 0.277,-0.489C0.248,-0.456 0.234,-0.412 0.234,-0.356C0.234,-0.301 0.248,-0.258 0.277,-0.225C0.306,-0.192 0.345,-0.176 0.395,-0.176C0.444,-0.176 0.483,-0.192 0.512,-0.225C0.541,-0.258 0.555,-0.301 0.555,-0.356C0.555,-0.412 0.541,-0.456 0.513,-0.489C0.484,-0.521 0.445,-0.537 0.395,-0.537Z" style="fill:rgb(42,30,92);fill-rule:nonzero;"/>
                    </g>
                    <g transform="matrix(144,0,0,144,1154.36,195.558)">
                        <path d="M0.708,0L0.511,0L0.251,-0.395L0.251,0L0.054,0L0.054,-0.707L0.251,-0.707L0.511,-0.307L0.511,-0.707L0.708,-0.707L0.708,0Z" style="fill:rgb(42,30,92);fill-rule:nonzero;"/>
                    </g>
                    <g transform="matrix(144,0,0,144,1257.03,195.558)">
                        <path d="M0.251,-0.551L0.251,-0.434L0.48,-0.434L0.48,-0.285L0.251,-0.285L0.251,-0.157L0.51,-0.157L0.51,0L0.054,0L0.054,-0.708L0.51,-0.708L0.51,-0.551L0.251,-0.551Z" style="fill:rgb(42,30,92);fill-rule:nonzero;"/>
                    </g>
                </g>
                <g transform="matrix(0.983743,0,0,0.983743,30.5842,-34.3307)">
                    <g transform="matrix(0.641202,0,0,0.909091,0,0)">
                        <path d="M627,212C627,305.274 551.274,381 458,381C364.726,381 289,305.274 289,212L327,212C327,284.301 385.699,343 458,343C530.301,343 589,284.301 589,212L627,212Z" style="fill:rgb(238,66,102);"/>
                    </g>
                    <g transform="matrix(0.641202,0,0,0.909091,0,0)">
                        <path d="M554.181,212L554.182,212.538C554.182,265.326 511.326,308.182 458.538,308.182C405.751,308.182 362.894,265.326 362.894,212.538L362.896,212L402.897,212C402.895,212.182 402.894,212.36 402.894,212.538C402.894,243.249 427.827,268.182 458.538,268.182C489.249,268.182 514.182,243.249 514.182,212.538C514.182,212.36 514.181,212.182 514.179,212L554.181,212Z" style="fill:rgb(42,30,92);"/>
                    </g>
                    <g transform="matrix(0.641202,0,0,0.909091,0,0)">
                        <path d="M402.538,212C402.538,181.093 427.631,156 458.538,156C489.445,156 514.538,181.093 514.538,212L402.538,212Z" style="fill:rgb(42,30,92);"/>
                    </g>
                    <g transform="matrix(0.641202,0,0,0.909091,0,0)">
                        <path d="M322.91,212C322.899,211.317 322.894,210.624 322.894,209.93C322.894,136.078 383.008,76.042 457.147,76.042C531.287,76.042 591.401,136.078 591.401,209.93C591.401,210.624 591.395,211.317 591.384,212L551.378,212C551.393,211.307 551.401,210.619 551.401,209.93C551.401,158.112 509.167,116.042 457.147,116.042C405.127,116.042 362.894,158.112 362.894,209.93C362.894,210.619 362.901,211.307 362.917,212L322.91,212Z" style="fill:rgb(238,66,102);"/>
                    </g>
                </g>
            </g>
        </g>
    </g>
</svg>
